<svg id="グループ_36" data-name="グループ 36" xmlns="http://www.w3.org/2000/svg" width="80" height="53" viewBox="0 0 80 53">
  <rect id="長方形_3" data-name="長方形 3" width="80" height="53" fill="#ffe283"/>
  <path id="パス_7" data-name="パス 7" d="M4.8-4.648A1.848,1.848,0,0,0,4.448-5.5,2.108,2.108,0,0,0,2.68-6.232c-1.24,0-2.048.648-2.048,1.656a1.366,1.366,0,0,0,.744,1.264,3.628,3.628,0,0,0,1.088.368,3.932,3.932,0,0,1,1.32.392.914.914,0,0,1,.464.856C4.248-.952,3.672-.5,2.72-.5a1.62,1.62,0,0,1-1.336-.552,1.246,1.246,0,0,1-.248-.792l-.7.088A2.061,2.061,0,0,0,.816-.7a2.284,2.284,0,0,0,1.928.76C4.12.056,4.9-.584,4.9-1.712,4.9-2.64,4.384-3.128,3.1-3.4A5.857,5.857,0,0,1,1.96-3.688a.942.942,0,0,1-.7-.9c0-.648.576-1.088,1.4-1.088a1.484,1.484,0,0,1,1.184.464,1.306,1.306,0,0,1,.28.664Zm3.456-.92H9.5a5.754,5.754,0,0,1,.944.056v-.672a5.627,5.627,0,0,1-.944.056H6.376a5.641,5.641,0,0,1-.912-.056v.672a5.75,5.75,0,0,1,.92-.056H7.632V-.952a4.77,4.77,0,0,1-.064.9H8.32a4.934,4.934,0,0,1-.064-.9Zm7.024,4.9a5.925,5.925,0,0,1-.888.056H11.856V-2.96h2.1a5.426,5.426,0,0,1,.9.056v-.672a6.259,6.259,0,0,1-.9.056h-2.1V-5.568H14.32a5.622,5.622,0,0,1,.9.056v-.672a5.965,5.965,0,0,1-.9.056H12.04c-.384,0-.6-.008-.88-.024a5.9,5.9,0,0,1,.064.912V-.976a5.507,5.507,0,0,1-.064.952c.272-.016.5-.024.88-.024h2.344a5.239,5.239,0,0,1,.9.056Zm1.776.616a4.878,4.878,0,0,1-.064-.9V-2.528h1.784a1.745,1.745,0,0,0,1.968-1.856c0-1.112-.7-1.744-1.928-1.744H17.184c-.368,0-.592-.008-.88-.024a5.9,5.9,0,0,1,.064.912v4.3a4.953,4.953,0,0,1-.064.9ZM16.992-3.08v-2.5h1.784c.864,0,1.328.424,1.328,1.224A1.179,1.179,0,0,1,18.776-3.08ZM24.768-.048A9,9,0,0,1,25.752,0V-.672a6.984,6.984,0,0,1-.976.056H22.224a2.242,2.242,0,0,1,.456-.928,4.356,4.356,0,0,1,1.152-.984,6.306,6.306,0,0,0,1.36-1.032A1.67,1.67,0,0,0,25.664-4.7c0-.944-.776-1.552-1.984-1.552a2.045,2.045,0,0,0-1.608.616,2.175,2.175,0,0,0-.5,1.152l.672.112a1.619,1.619,0,0,1,.28-.808,1.323,1.323,0,0,1,1.16-.52c.816,0,1.328.392,1.328,1,0,.488-.264.84-1.056,1.376a10.861,10.861,0,0,0-1.224.88,3.512,3.512,0,0,0-1.04,1.376,3.673,3.673,0,0,0-.232,1.056,5.729,5.729,0,0,1,.88-.04Z" transform="translate(27 11.676)" fill="#707070"/>
  <path id="パス_6" data-name="パス 6" d="M21.7,2.953a6.436,6.436,0,0,1,2.344,4.781,6.239,6.239,0,0,1-1.875,4.922l-9.047,9.375a1.474,1.474,0,0,1-2.156,0L1.922,12.656A6.239,6.239,0,0,1,.047,7.734,6.436,6.436,0,0,1,2.391,2.953a5.821,5.821,0,0,1,4.43-1.43,6.584,6.584,0,0,1,4.289,2.039l.938.938.938-.937a6.584,6.584,0,0,1,4.289-2.039A5.821,5.821,0,0,1,21.7,2.953Z" transform="translate(27 22.4)" fill="#707070"/>
  <g id="多角形_4" data-name="多角形 4" transform="translate(77.383 23) rotate(90)" fill="#707070">
    <path d="M 6.926743984222412 6.228976249694824 L 0.8673741817474365 6.228976249694824 L 3.897058963775635 0.9976766109466553 L 6.926743984222412 6.228976249694824 Z" stroke="none"/>
    <path d="M 3.897058963775635 1.995339870452881 L 1.734739303588867 5.728976249694824 L 6.059378623962402 5.728976249694824 L 3.897058963775635 1.995339870452881 M 3.897058963775635 -3.814697265625e-06 L 7.794118881225586 6.728976249694824 L -9.5367431640625e-07 6.728976249694824 L 3.897058963775635 -3.814697265625e-06 Z" stroke="none" fill="#707070"/>
  </g>
</svg>
