<svg id="グループ_34" data-name="グループ 34" xmlns="http://www.w3.org/2000/svg" width="80" height="53" viewBox="0 0 80 53">
  <rect id="長方形_2" data-name="長方形 2" width="80" height="53" fill="#ffe283"/>
  <path id="パス_5" data-name="パス 5" d="M4.8-4.648A1.848,1.848,0,0,0,4.448-5.5,2.108,2.108,0,0,0,2.68-6.232c-1.24,0-2.048.648-2.048,1.656a1.366,1.366,0,0,0,.744,1.264,3.628,3.628,0,0,0,1.088.368,3.932,3.932,0,0,1,1.32.392.914.914,0,0,1,.464.856C4.248-.952,3.672-.5,2.72-.5a1.62,1.62,0,0,1-1.336-.552,1.246,1.246,0,0,1-.248-.792l-.7.088A2.061,2.061,0,0,0,.816-.7a2.284,2.284,0,0,0,1.928.76C4.12.056,4.9-.584,4.9-1.712,4.9-2.64,4.384-3.128,3.1-3.4A5.857,5.857,0,0,1,1.96-3.688a.942.942,0,0,1-.7-.9c0-.648.576-1.088,1.4-1.088a1.484,1.484,0,0,1,1.184.464,1.306,1.306,0,0,1,.28.664Zm3.456-.92H9.5a5.754,5.754,0,0,1,.944.056v-.672a5.627,5.627,0,0,1-.944.056H6.376a5.641,5.641,0,0,1-.912-.056v.672a5.75,5.75,0,0,1,.92-.056H7.632V-.952a4.77,4.77,0,0,1-.064.9H8.32a4.934,4.934,0,0,1-.064-.9Zm7.024,4.9a5.925,5.925,0,0,1-.888.056H11.856V-2.96h2.1a5.426,5.426,0,0,1,.9.056v-.672a6.259,6.259,0,0,1-.9.056h-2.1V-5.568H14.32a5.622,5.622,0,0,1,.9.056v-.672a5.965,5.965,0,0,1-.9.056H12.04c-.384,0-.6-.008-.88-.024a5.9,5.9,0,0,1,.064.912V-.976a5.507,5.507,0,0,1-.064.952c.272-.016.5-.024.88-.024h2.344a5.239,5.239,0,0,1,.9.056Zm1.776.616a4.878,4.878,0,0,1-.064-.9V-2.528h1.784a1.745,1.745,0,0,0,1.968-1.856c0-1.112-.7-1.744-1.928-1.744H17.184c-.368,0-.592-.008-.88-.024a5.9,5.9,0,0,1,.064.912v4.3a4.953,4.953,0,0,1-.064.9ZM16.992-3.08v-2.5h1.784c.864,0,1.328.424,1.328,1.224A1.179,1.179,0,0,1,18.776-3.08Zm5.28-2.456a4.836,4.836,0,0,1,.7-.048H23.4V-.952a5.046,5.046,0,0,1-.064.9h.76a5.1,5.1,0,0,1-.064-.9V-4.84A13.126,13.126,0,0,1,24.1-6.168a4.555,4.555,0,0,1-.664.04h-.5a3.874,3.874,0,0,1-.664-.04Z" transform="translate(27 10.676)" fill="#707070"/>
  <path id="パス_4" data-name="パス 4" d="M23.391-14.344l-2.156,2.156a.482.482,0,0,1-.8,0l-5.2-5.2a.482.482,0,0,1,0-.8l2.156-2.156A2.17,2.17,0,0,1,18.984-21a2.17,2.17,0,0,1,1.594.656l2.813,2.813a2.17,2.17,0,0,1,.656,1.594A2.17,2.17,0,0,1,23.391-14.344ZM13.359-16.312a.482.482,0,0,1,.8,0l5.2,5.2a.482.482,0,0,1,0,.8L7.078,1.969,1.359,3a1.075,1.075,0,0,1-.984-.328,1.075,1.075,0,0,1-.328-.984L1.078-4.031ZM5.859-6a.586.586,0,0,0,0,.938.586.586,0,0,0,.938,0l7.219-7.219a.586.586,0,0,0,0-.937.586.586,0,0,0-.937,0ZM4.172-1.125v-2.25H2.484l-.562,3,1.5,1.5,3-.562V-1.125Z" transform="translate(28 43.382)" fill="#707070"/>
  <g id="多角形_2" data-name="多角形 2" transform="translate(77.383 23) rotate(90)" fill="#707070">
    <path d="M 6.926743984222412 6.228976249694824 L 0.8673741817474365 6.228976249694824 L 3.897058963775635 0.9976766109466553 L 6.926743984222412 6.228976249694824 Z" stroke="none"/>
    <path d="M 3.897058963775635 1.995339870452881 L 1.734739303588867 5.728976249694824 L 6.059378623962402 5.728976249694824 L 3.897058963775635 1.995339870452881 M 3.897058963775635 -3.814697265625e-06 L 7.794118881225586 6.728976249694824 L -9.5367431640625e-07 6.728976249694824 L 3.897058963775635 -3.814697265625e-06 Z" stroke="none" fill="#707070"/>
  </g>
</svg>
