<svg id="グループ_37" data-name="グループ 37" xmlns="http://www.w3.org/2000/svg" width="80" height="53" viewBox="0 0 80 53">
  <rect id="長方形_5" data-name="長方形 5" width="80" height="53" fill="#ffe283"/>
  <path id="パス_11" data-name="パス 11" d="M4.8-4.648A1.848,1.848,0,0,0,4.448-5.5,2.108,2.108,0,0,0,2.68-6.232c-1.24,0-2.048.648-2.048,1.656a1.366,1.366,0,0,0,.744,1.264,3.628,3.628,0,0,0,1.088.368,3.932,3.932,0,0,1,1.32.392.914.914,0,0,1,.464.856C4.248-.952,3.672-.5,2.72-.5a1.62,1.62,0,0,1-1.336-.552,1.246,1.246,0,0,1-.248-.792l-.7.088A2.061,2.061,0,0,0,.816-.7a2.284,2.284,0,0,0,1.928.76C4.12.056,4.9-.584,4.9-1.712,4.9-2.64,4.384-3.128,3.1-3.4A5.857,5.857,0,0,1,1.96-3.688a.942.942,0,0,1-.7-.9c0-.648.576-1.088,1.4-1.088a1.484,1.484,0,0,1,1.184.464,1.306,1.306,0,0,1,.28.664Zm3.456-.92H9.5a5.754,5.754,0,0,1,.944.056v-.672a5.627,5.627,0,0,1-.944.056H6.376a5.641,5.641,0,0,1-.912-.056v.672a5.75,5.75,0,0,1,.92-.056H7.632V-.952a4.77,4.77,0,0,1-.064.9H8.32a4.934,4.934,0,0,1-.064-.9Zm7.024,4.9a5.925,5.925,0,0,1-.888.056H11.856V-2.96h2.1a5.426,5.426,0,0,1,.9.056v-.672a6.259,6.259,0,0,1-.9.056h-2.1V-5.568H14.32a5.622,5.622,0,0,1,.9.056v-.672a5.965,5.965,0,0,1-.9.056H12.04c-.384,0-.6-.008-.88-.024a5.9,5.9,0,0,1,.064.912V-.976a5.507,5.507,0,0,1-.064.952c.272-.016.5-.024.88-.024h2.344a5.239,5.239,0,0,1,.9.056Zm1.776.616a4.878,4.878,0,0,1-.064-.9V-2.528h1.784a1.745,1.745,0,0,0,1.968-1.856c0-1.112-.7-1.744-1.928-1.744H17.184c-.368,0-.592-.008-.88-.024a5.9,5.9,0,0,1,.064.912v4.3a4.953,4.953,0,0,1-.064.9ZM16.992-3.08v-2.5h1.784c.864,0,1.328.424,1.328,1.224A1.179,1.179,0,0,1,18.776-3.08Zm4.24,1.512c.264-.024.5-.032.952-.032h2.144v.688a4.642,4.642,0,0,1-.064.864h.728a4.588,4.588,0,0,1-.064-.864V-1.6h.3a5.48,5.48,0,0,1,.84.056v-.664a5.373,5.373,0,0,1-.832.056h-.3V-4.776a13.269,13.269,0,0,1,.048-1.352h-.6a9.025,9.025,0,0,1-.6.816L21.752-2.784c-.168.2-.352.424-.52.616Zm3.1-.576H21.944l1.84-2.32c.232-.3.432-.56.6-.8a9.729,9.729,0,0,0-.048,1.088Z" transform="translate(27 11.676)" fill="#707070"/>
  <path id="パス_10" data-name="パス 10" d="M1.5,0V-6h9V1.5H3a1.442,1.442,0,0,1-1.055-.445A1.442,1.442,0,0,1,1.5,0Zm12,1.5V-6h9V0a1.442,1.442,0,0,1-.445,1.055A1.442,1.442,0,0,1,21,1.5Zm9-15a1.442,1.442,0,0,1,1.055.445A1.442,1.442,0,0,1,24-12v3.75a.73.73,0,0,1-.211.539.73.73,0,0,1-.539.211H.75a.73.73,0,0,1-.539-.211A.73.73,0,0,1,0-8.25V-12a1.442,1.442,0,0,1,.445-1.055A1.442,1.442,0,0,1,1.5-13.5H3.563a3.971,3.971,0,0,1-.469-1.875,3.968,3.968,0,0,1,1.219-2.906A3.968,3.968,0,0,1,7.219-19.5a4.243,4.243,0,0,1,2.484.75,11.018,11.018,0,0,1,2.344,2.438,11.018,11.018,0,0,1,2.344-2.437,4.243,4.243,0,0,1,2.484-.75,3.968,3.968,0,0,1,2.906,1.219A3.968,3.968,0,0,1,21-15.375a4.16,4.16,0,0,1-.469,1.875Zm-15.281,0H11.25a16.3,16.3,0,0,0-2.414-3.117,2.524,2.524,0,0,0-1.617-.633,1.763,1.763,0,0,0-.937.258,2.02,2.02,0,0,0-.68.68,1.763,1.763,0,0,0-.258.938,1.814,1.814,0,0,0,.539,1.336A1.814,1.814,0,0,0,7.219-13.5Zm9.656,0a1.814,1.814,0,0,0,1.336-.539,1.814,1.814,0,0,0,.539-1.336,1.814,1.814,0,0,0-.539-1.336,1.814,1.814,0,0,0-1.336-.539,2.522,2.522,0,0,0-.961.164,4,4,0,0,0-1.148,1.008A26.066,26.066,0,0,0,12.844-13.5Z" transform="translate(28 43.4)" fill="#707070"/>
</svg>
