<svg id="グループ_35" data-name="グループ 35" xmlns="http://www.w3.org/2000/svg" width="80" height="53" viewBox="0 0 80 53">
  <rect id="長方形_5" data-name="長方形 5" width="80" height="53" fill="#ffe283"/>
  <path id="パス_9" data-name="パス 9" d="M4.8-4.648A1.848,1.848,0,0,0,4.448-5.5,2.108,2.108,0,0,0,2.68-6.232c-1.24,0-2.048.648-2.048,1.656a1.366,1.366,0,0,0,.744,1.264,3.628,3.628,0,0,0,1.088.368,3.932,3.932,0,0,1,1.32.392.914.914,0,0,1,.464.856C4.248-.952,3.672-.5,2.72-.5a1.62,1.62,0,0,1-1.336-.552,1.246,1.246,0,0,1-.248-.792l-.7.088A2.061,2.061,0,0,0,.816-.7a2.284,2.284,0,0,0,1.928.76C4.12.056,4.9-.584,4.9-1.712,4.9-2.64,4.384-3.128,3.1-3.4A5.857,5.857,0,0,1,1.96-3.688a.942.942,0,0,1-.7-.9c0-.648.576-1.088,1.4-1.088a1.484,1.484,0,0,1,1.184.464,1.306,1.306,0,0,1,.28.664Zm3.456-.92H9.5a5.754,5.754,0,0,1,.944.056v-.672a5.627,5.627,0,0,1-.944.056H6.376a5.641,5.641,0,0,1-.912-.056v.672a5.75,5.75,0,0,1,.92-.056H7.632V-.952a4.77,4.77,0,0,1-.064.9H8.32a4.934,4.934,0,0,1-.064-.9Zm7.024,4.9a5.925,5.925,0,0,1-.888.056H11.856V-2.96h2.1a5.426,5.426,0,0,1,.9.056v-.672a6.259,6.259,0,0,1-.9.056h-2.1V-5.568H14.32a5.622,5.622,0,0,1,.9.056v-.672a5.965,5.965,0,0,1-.9.056H12.04c-.384,0-.6-.008-.88-.024a5.9,5.9,0,0,1,.064.912V-.976a5.507,5.507,0,0,1-.064.952c.272-.016.5-.024.88-.024h2.344a5.239,5.239,0,0,1,.9.056Zm1.776.616a4.878,4.878,0,0,1-.064-.9V-2.528h1.784a1.745,1.745,0,0,0,1.968-1.856c0-1.112-.7-1.744-1.928-1.744H17.184c-.368,0-.592-.008-.88-.024a5.9,5.9,0,0,1,.064.912v4.3a4.953,4.953,0,0,1-.064.9ZM16.992-3.08v-2.5h1.784c.864,0,1.328.424,1.328,1.224A1.179,1.179,0,0,1,18.776-3.08Zm4.352,1.72a2.078,2.078,0,0,0,.408.776,2.285,2.285,0,0,0,1.792.656c1.336,0,2.168-.672,2.168-1.752a1.465,1.465,0,0,0-.536-1.208,1.716,1.716,0,0,0-.984-.344,1.643,1.643,0,0,0,.752-.288,1.405,1.405,0,0,0,.56-1.168c0-.96-.736-1.568-1.9-1.568a2.078,2.078,0,0,0-1.592.584,1.824,1.824,0,0,0-.432.8l.664.144A1.514,1.514,0,0,1,22.5-5.3a1.257,1.257,0,0,1,1.064-.424c.808,0,1.288.4,1.288,1.088a1.1,1.1,0,0,1-.32.776,1.6,1.6,0,0,1-1.168.368,3.412,3.412,0,0,1-.592-.048V-2.9a5.61,5.61,0,0,1,.64-.04c1.064,0,1.632.432,1.632,1.224,0,.76-.584,1.24-1.512,1.24A1.764,1.764,0,0,1,22.5-.768a1.208,1.208,0,0,1-.488-.76Z" transform="translate(27 11.676)" fill="#707070"/>
  <path id="パス_8" data-name="パス 8" d="M3.75-17.2A11.244,11.244,0,0,1,12-20.625a11.205,11.205,0,0,1,8.227,3.4A11.205,11.205,0,0,1,23.625-9a11.205,11.205,0,0,1-3.4,8.227A11.205,11.205,0,0,1,12,2.625a11.205,11.205,0,0,1-8.227-3.4A11.205,11.205,0,0,1,.375-9,11.167,11.167,0,0,1,3.75-17.2ZM16.313-5.953a.636.636,0,0,0,.188-.469.756.756,0,0,0-.281-.609L13.5-9v-6.75a.73.73,0,0,0-.211-.539.73.73,0,0,0-.539-.211h-1.5a.73.73,0,0,0-.539.211.73.73,0,0,0-.211.539v7.313a1.776,1.776,0,0,0,.7,1.453l3.141,2.3a.636.636,0,0,0,.469.188.631.631,0,0,0,.563-.281Z" transform="translate(28 43.4)" fill="#707070"/>
</svg>
