<svg xmlns="http://www.w3.org/2000/svg" xmlns:xlink="http://www.w3.org/1999/xlink" width="223" height="171.81" viewBox="0 0 223 171.81">
  <defs>
    <linearGradient id="linear-gradient" x1="0.5" x2="0.5" y2="1" gradientUnits="objectBoundingBox">
      <stop offset="0" stop-color="#ff6d4b"/>
      <stop offset="1" stop-color="#ea3a10"/>
    </linearGradient>
  </defs>
  <g id="グループ_43" data-name="グループ 43" transform="translate(-81.5 -227)">
    <rect id="長方形_8" data-name="長方形 8" width="197" height="163.807" rx="35" transform="translate(93 235.003)" fill="url(#linear-gradient)"/>
    <path id="パス_18" data-name="パス 18" d="M53.031,3.247,38.61,1.376l-5.032,4.7L23.32,9.984,35.27,12.812l3.4,6.927,14.361-3.388L65.794,19.74l5.329-6.927,9.963-2.828L73.207,6.076l-4.585-4.7Z" transform="translate(135.68 225.624)" fill="#3e9f00"/>
    <line id="線_3" data-name="線 3" x2="223" transform="translate(81.5 247.5)" fill="none" stroke="#fff" stroke-width="1" opacity="0.5"/>
    <line id="線_4" data-name="線 4" x2="223" transform="translate(81.5 257.5)" fill="none" stroke="#fff" stroke-width="1" opacity="0.5"/>
    <line id="線_5" data-name="線 5" x2="223" transform="translate(81.5 267.5)" fill="none" stroke="#fff" stroke-width="1" opacity="0.5"/>
    <line id="線_6" data-name="線 6" x2="223" transform="translate(81.5 277.5)" fill="none" stroke="#fff" stroke-width="1" opacity="0.5"/>
    <line id="線_7" data-name="線 7" x2="223" transform="translate(81.5 287.5)" fill="none" stroke="#fff" stroke-width="1" opacity="0.5"/>
    <line id="線_8" data-name="線 8" x2="223" transform="translate(81.5 297.5)" fill="none" stroke="#fff" stroke-width="1" opacity="0.5"/>
    <line id="線_9" data-name="線 9" x2="223" transform="translate(81.5 307.5)" fill="none" stroke="#fff" stroke-width="1" opacity="0.5"/>
    <line id="線_10" data-name="線 10" x2="223" transform="translate(81.5 317.5)" fill="none" stroke="#fff" stroke-width="1" opacity="0.5"/>
    <line id="線_11" data-name="線 11" x2="223" transform="translate(81.5 327.5)" fill="none" stroke="#fff" stroke-width="1" opacity="0.5"/>
    <line id="線_12" data-name="線 12" x2="223" transform="translate(81.5 337.5)" fill="none" stroke="#fff" stroke-width="1" opacity="0.5"/>
    <line id="線_13" data-name="線 13" x2="223" transform="translate(81.5 347.5)" fill="none" stroke="#fff" stroke-width="1" opacity="0.5"/>
    <line id="線_14" data-name="線 14" x2="223" transform="translate(81.5 357.5)" fill="none" stroke="#fff" stroke-width="1" opacity="0.5"/>
    <line id="線_15" data-name="線 15" x2="223" transform="translate(81.5 367.5)" fill="none" stroke="#fff" stroke-width="1" opacity="0.5"/>
    <line id="線_16" data-name="線 16" x2="223" transform="translate(81.5 377.5)" fill="none" stroke="#fff" stroke-width="1" opacity="0.5"/>
    <line id="線_17" data-name="線 17" x2="223" transform="translate(81.5 387.5)" fill="none" stroke="#fff" stroke-width="1" opacity="0.5"/>
    <line id="線_18" data-name="線 18" x2="223" transform="translate(81.5 397.5)" fill="none" stroke="#fff" stroke-width="1" opacity="0.5"/>
    <text id="仕事" transform="translate(188 326)" fill="#fff" font-size="29" font-family="HiraKakuProN-W6, Hiragino Kaku Gothic ProN"><tspan x="-29" y="0">仕事</tspan></text>
  </g>
</svg>
