<svg xmlns="http://www.w3.org/2000/svg" width="211" height="184.625" viewBox="0 0 211 184.625">
  <path id="パス_12" data-name="パス 12" d="M13.188,0V-52.75H92.313V13.188H26.375A12.673,12.673,0,0,1,17.1,9.272,12.673,12.673,0,0,1,13.188,0Zm105.5,13.188V-52.75h79.125V0A12.673,12.673,0,0,1,193.9,9.272a12.673,12.673,0,0,1-9.272,3.915Zm79.125-131.875a12.673,12.673,0,0,1,9.272,3.915A12.673,12.673,0,0,1,211-105.5v32.969a6.418,6.418,0,0,1-1.854,4.739,6.418,6.418,0,0,1-4.739,1.854H6.594a6.418,6.418,0,0,1-4.739-1.854A6.418,6.418,0,0,1,0-72.531V-105.5a12.673,12.673,0,0,1,3.915-9.272,12.673,12.673,0,0,1,9.272-3.915H31.32A34.912,34.912,0,0,1,27.2-135.172a34.882,34.882,0,0,1,10.715-25.551,34.882,34.882,0,0,1,25.551-10.715,37.3,37.3,0,0,1,21.842,6.594q9.479,6.594,20.605,21.43,11.127-14.836,20.605-21.43a37.3,37.3,0,0,1,21.842-6.594,34.882,34.882,0,0,1,25.551,10.715,34.882,34.882,0,0,1,10.715,25.551,36.577,36.577,0,0,1-4.121,16.484Zm-134.348,0H98.906q-14.424-21.842-21.224-27.405t-14.218-5.563a15.5,15.5,0,0,0-8.242,2.267,17.76,17.76,0,0,0-5.976,5.976,15.5,15.5,0,0,0-2.267,8.242,15.95,15.95,0,0,0,4.739,11.745A15.95,15.95,0,0,0,63.465-118.687Zm84.895,0a15.95,15.95,0,0,0,11.745-4.739,15.95,15.95,0,0,0,4.739-11.745,15.95,15.95,0,0,0-4.739-11.745,15.95,15.95,0,0,0-11.745-4.739,22.169,22.169,0,0,0-8.448,1.442q-3.5,1.442-10.1,8.86t-16.9,22.666Z" transform="translate(0 171.438)" fill="#ffce29"/>
</svg>
